<svg width="160" height="36" viewBox="0 0 160 36" fill="none" xmlns="http://www.w3.org/2000/svg">
  <path d="M14 28C14 28 8 22 8 16C8 11 11 7 14 5C13 9 15 11 17 10C15 14 18 17 18 20C20 17 19 13 21 11C24 14 24 19 22 23C21 25 19 27 18 28" fill="white" fillOpacity="0.9"/>
  <path d="M14 28C14 28 10 24 10 19C10 15 12 12 14 10C13.5 13 15 15 16.5 14C15 17 17 19.5 17 22C18.5 19.5 18 16 19.5 14C22 17 22 21 20 24.5C19 26.5 17 28 16 28" fill="white" fillOpacity="0.5"/>
  <text x="30" y="22" font-family="Georgia, serif" font-size="15" font-weight="700" fill="white" letter-spacing="0.5">HOPE</text>
  <text x="30" y="34" font-family="Georgia, serif" font-size="10" font-weight="400" fill="white" fill-opacity="0.75" letter-spacing="3">CATALYST</text>
  <line x1="80" y1="10" x2="80" y2="32" stroke="white" stroke-opacity="0.3" stroke-width="0.5"/>
</svg>
